<svg class="todolist-edit" height="18px" width="18px" fill="#98B0D2" viewBox="0 0 476.764 476"  xmlns="http://www.w3.org/2000/svg"><path d="M451.023 26.117c-34.386-34.312-90.058-34.312-124.449 0v.047L40.992 311.714a7.968 7.968 0 0 0-1.543 2.337 6.842 6.842 0 0 0-.273.656 6.889 6.889 0 0 0-.262.664L.258 467.133c-.715 2.742.082 5.66 2.086 7.664s4.922 2.797 7.664 2.086l151.754-38.64c.23-.063.43-.184.656-.263a7.26 7.26 0 0 0 .68-.273 7.931 7.931 0 0 0 2.328-1.543l285.543-285.559.054-.042c34.32-34.383 34.32-90.063 0-124.446zm-11.312 11.309c25.887 25.949 28.187 67.183 5.351 95.851L343.873 32.074c28.663-22.836 69.898-20.531 95.839 5.352zm-107.473 5.707L434.047 144.89l-28.68 28.687L303.56 71.773zm-303.445 376.8a56.536 56.536 0 0 1 28.414 28.415L19.09 458.05zm44 24.422a72.503 72.503 0 0 0-40-40l18.145-71.382 93.23 93.238zm86.977-25.199L57.96 317.371 292.25 83.082l101.805 101.809zm0 0"/></svg>